<?xml version="1.0" encoding="utf-8"?>
<!-- Generator: Adobe Illustrator 16.0.0, SVG Export Plug-In . SVG Version: 6.00 Build 0)  -->
<!DOCTYPE svg PUBLIC "-//W3C//DTD SVG 1.1//EN" "http://www.w3.org/Graphics/SVG/1.1/DTD/svg11.dtd">
<svg version="1.1" id="圖層_1" xmlns="http://www.w3.org/2000/svg" xmlns:xlink="http://www.w3.org/1999/xlink" x="0px" y="0px"
	 width="200px" height="114px" viewBox="0 0 200 114" enable-background="new 0 0 200 114" xml:space="preserve">
<g>
	<path fill="#F4514B" d="M109.578,19.417c0.091,0.169,0.137,0.332,0.137,0.488c0,0.169-0.052,0.339-0.156,0.508
		c-0.183,0.326-0.462,0.488-0.84,0.488h-0.605c-0.521,0-1.006-0.137-1.455-0.41s-0.798-0.638-1.045-1.094l-1.855-3.555
		c-0.065-0.117-0.163-0.176-0.293-0.176h-1.328c-0.13,0-0.195,0.065-0.195,0.195v3.34c0,0.469-0.166,0.869-0.498,1.201
		s-0.732,0.498-1.201,0.498h-0.176c-0.469,0-0.869-0.166-1.201-0.498s-0.498-0.732-0.498-1.201V7.717
		c0-0.469,0.166-0.869,0.498-1.201s0.732-0.498,1.201-0.498h3.77c3.88,0,5.82,1.563,5.82,4.688c0,1.992-0.801,3.398-2.402,4.219
		c-0.104,0.052-0.13,0.137-0.078,0.254L109.578,19.417z M102.136,8.85c-0.13,0-0.195,0.065-0.195,0.195v3.594
		c0,0.13,0.065,0.195,0.195,0.195h1.406c0.859,0,1.507-0.179,1.943-0.537c0.436-0.358,0.654-0.889,0.654-1.592
		c0-0.677-0.212-1.155-0.635-1.436c-0.423-0.28-1.078-0.42-1.963-0.42H102.136z"/>
	<path fill="#F4514B" d="M116.912,21.161c-1.534,0-2.799-0.501-3.794-1.503c-0.996-1.002-1.494-2.356-1.494-4.063
		c0-0.829,0.139-1.602,0.417-2.319c0.278-0.717,0.649-1.311,1.113-1.781c0.464-0.47,0.993-0.838,1.586-1.104
		c0.594-0.266,1.206-0.399,1.837-0.399c1.373,0,2.443,0.439,3.21,1.317c0.829,0.928,1.243,2.097,1.243,3.507
		c0,0.433-0.167,0.792-0.501,1.076c-0.347,0.31-0.761,0.464-1.243,0.464h-4.769c-0.037,0-0.074,0.019-0.111,0.056
		s-0.05,0.081-0.037,0.13c0.136,0.804,0.464,1.419,0.983,1.846s1.163,0.64,1.93,0.64c0.52,0,1.026-0.099,1.521-0.297
		c0.148-0.062,0.297-0.093,0.445-0.093c0.111,0,0.216,0.013,0.315,0.037c0.272,0.074,0.47,0.229,0.594,0.464
		c0.086,0.161,0.13,0.328,0.13,0.501c0,0.087-0.013,0.173-0.037,0.26c-0.062,0.272-0.217,0.464-0.464,0.575
		C118.847,20.932,117.889,21.161,116.912,21.161z M114.333,14.37c0,0.037,0.012,0.068,0.037,0.093
		c0.024,0.037,0.062,0.056,0.111,0.056h3.971c0.049,0,0.093-0.019,0.13-0.056s0.056-0.08,0.056-0.13
		c-0.037-0.692-0.223-1.228-0.557-1.605c-0.334-0.377-0.823-0.566-1.466-0.566c-0.557,0-1.045,0.186-1.466,0.557
		C114.604,13.213,114.333,13.764,114.333,14.37z"/>
	<path fill="#F4514B" d="M125.725,21.161c-0.94,0-1.701-0.297-2.282-0.891c-0.582-0.594-0.872-1.348-0.872-2.264
		c0-1.125,0.473-2,1.419-2.625c0.946-0.625,2.452-1.054,4.518-1.29c0.124-0.012,0.179-0.08,0.167-0.204
		c-0.099-1.101-0.693-1.651-1.781-1.651c-0.606,0-1.274,0.173-2.004,0.52c-0.161,0.074-0.322,0.111-0.482,0.111
		c-0.111,0-0.223-0.019-0.334-0.056c-0.272-0.074-0.477-0.235-0.612-0.482c-0.099-0.173-0.148-0.346-0.148-0.52
		c0-0.099,0.019-0.198,0.056-0.297c0.074-0.284,0.241-0.495,0.501-0.631c1.2-0.594,2.375-0.891,3.525-0.891
		c1.348,0,2.366,0.399,3.052,1.197s1.03,1.964,1.03,3.498v5.084c0,0.31-0.111,0.575-0.334,0.798s-0.489,0.334-0.798,0.334h-0.093
		c-0.31,0-0.579-0.096-0.807-0.288c-0.229-0.191-0.375-0.436-0.436-0.733v-0.093c-0.013-0.012-0.028-0.019-0.046-0.019
		s-0.034,0.006-0.046,0.019C127.828,20.703,126.764,21.161,125.725,21.161z M126.634,18.99c0.643,0,1.286-0.309,1.93-0.928
		c0.086-0.086,0.13-0.191,0.13-0.315v-1.763c0-0.049-0.019-0.093-0.056-0.13c-0.025-0.024-0.062-0.037-0.111-0.037h-0.019
		c-1.175,0.161-2.013,0.408-2.514,0.742s-0.751,0.742-0.751,1.225c0,0.408,0.126,0.711,0.38,0.909
		C125.876,18.891,126.213,18.99,126.634,18.99z"/>
	<path fill="#F4514B" d="M138.083,21.161c-1.336,0-2.397-0.495-3.182-1.484c-0.786-0.989-1.178-2.35-1.178-4.082
		c0-1.67,0.442-3.021,1.327-4.054c0.884-1.033,1.933-1.549,3.145-1.549c0.532,0,0.993,0.087,1.382,0.26
		c0.39,0.173,0.782,0.433,1.178,0.779c0.024,0.025,0.052,0.028,0.083,0.009c0.031-0.019,0.04-0.04,0.028-0.065l-0.093-1.484V7.133
		c0-0.383,0.136-0.711,0.408-0.983c0.272-0.272,0.6-0.408,0.983-0.408c0.383,0,0.714,0.136,0.993,0.408
		c0.278,0.272,0.417,0.6,0.417,0.983v12.636c0,0.31-0.111,0.575-0.334,0.798s-0.489,0.334-0.798,0.334h-0.13
		c-0.297,0-0.56-0.093-0.789-0.278c-0.229-0.186-0.368-0.42-0.417-0.705l-0.019-0.093c-0.013-0.012-0.028-0.019-0.046-0.019
		s-0.034,0.006-0.046,0.019C140.068,20.715,139.097,21.161,138.083,21.161z M137.164,18.025c0.377,0.557,0.921,0.835,1.633,0.835
		c0.711,0,1.333-0.315,1.865-0.946c0.074-0.099,0.111-0.21,0.111-0.334v-4.305c0-0.124-0.05-0.223-0.148-0.297
		c-0.544-0.458-1.15-0.687-1.818-0.687c-0.631,0-1.157,0.291-1.577,0.872c-0.421,0.582-0.631,1.379-0.631,2.394
		C136.598,16.646,136.787,17.468,137.164,18.025z"/>
	<path fill="#F4514B" d="M147.972,8.543c-0.482,0-0.881-0.142-1.197-0.427c-0.315-0.284-0.473-0.649-0.473-1.095
		s0.154-0.807,0.464-1.085c0.309-0.278,0.711-0.417,1.206-0.417c0.47,0,0.863,0.139,1.178,0.417s0.473,0.64,0.473,1.085
		s-0.158,0.811-0.473,1.095C148.835,8.401,148.442,8.543,147.972,8.543z M148.928,20.493c-0.266,0.272-0.591,0.408-0.974,0.408
		c-0.384,0-0.711-0.136-0.983-0.408c-0.272-0.272-0.408-0.6-0.408-0.983v-7.867c0-0.383,0.136-0.708,0.408-0.974
		c0.272-0.266,0.6-0.399,0.983-0.399c0.383,0,0.708,0.133,0.974,0.399c0.266,0.266,0.399,0.591,0.399,0.974v7.867
		C149.327,19.893,149.193,20.221,148.928,20.493z"/>
	<path fill="#F4514B" d="M154.698,20.493c-0.266,0.272-0.591,0.408-0.974,0.408c-0.384,0-0.711-0.136-0.983-0.408
		c-0.272-0.272-0.408-0.6-0.408-0.983v-8.108c0-0.309,0.111-0.575,0.334-0.798s0.488-0.334,0.798-0.334
		c0.334,0,0.622,0.105,0.863,0.315c0.241,0.21,0.386,0.477,0.436,0.798l0.037,0.241c0,0.025,0.012,0.037,0.037,0.037
		c0.024,0,0.049-0.006,0.074-0.019c1.125-1.101,2.264-1.651,3.414-1.651c2.202,0,3.303,1.429,3.303,4.286v5.232
		c0,0.384-0.136,0.711-0.408,0.983c-0.272,0.272-0.603,0.408-0.993,0.408s-0.721-0.136-0.993-0.408
		c-0.272-0.272-0.408-0.6-0.408-0.983v-4.898c0-0.804-0.118-1.376-0.353-1.716c-0.235-0.34-0.619-0.51-1.15-0.51
		c-0.384,0-0.727,0.083-1.03,0.25c-0.303,0.167-0.653,0.442-1.048,0.826c-0.099,0.087-0.148,0.192-0.148,0.315v5.733
		C155.097,19.893,154.964,20.221,154.698,20.493z"/>
	<path fill="#F4514B" d="M168.252,25.577c-1.324,0-2.397-0.232-3.219-0.696c-0.823-0.464-1.234-1.147-1.234-2.05
		c0-0.878,0.495-1.602,1.484-2.171c0.024-0.012,0.037-0.037,0.037-0.074s-0.013-0.062-0.037-0.074
		c-0.619-0.42-0.928-1.008-0.928-1.763c0-0.371,0.108-0.729,0.325-1.076c0.216-0.346,0.492-0.643,0.826-0.891
		c0.012-0.012,0.019-0.031,0.019-0.056c0-0.024-0.006-0.049-0.019-0.074c-0.396-0.284-0.727-0.671-0.993-1.16
		c-0.266-0.488-0.399-1.017-0.399-1.586c0-1.2,0.417-2.143,1.252-2.83s1.852-1.03,3.052-1.03c0.482,0,0.952,0.068,1.41,0.204
		c0.136,0.05,0.26,0.074,0.371,0.074h2.616c0.284,0,0.529,0.099,0.733,0.297c0.204,0.198,0.306,0.439,0.306,0.724
		c0,0.285-0.102,0.526-0.306,0.724c-0.204,0.198-0.449,0.297-0.733,0.297h-0.612c-0.037,0-0.065,0.019-0.083,0.056
		s-0.016,0.068,0.009,0.093c0.26,0.408,0.39,0.897,0.39,1.466c0,1.15-0.387,2.041-1.16,2.672c-0.773,0.631-1.753,0.946-2.941,0.946
		c-0.359,0-0.755-0.068-1.188-0.204c-0.136-0.037-0.241-0.012-0.315,0.074c-0.21,0.21-0.315,0.477-0.315,0.798
		c0,0.297,0.126,0.517,0.38,0.659c0.253,0.143,0.683,0.213,1.29,0.213h1.8c1.311,0,2.297,0.213,2.959,0.64
		c0.662,0.427,0.993,1.098,0.993,2.013c0,1.101-0.526,2.007-1.577,2.718C171.394,25.221,169.997,25.577,168.252,25.577z
		 M168.661,23.814c0.779,0,1.425-0.152,1.939-0.455c0.513-0.303,0.77-0.665,0.77-1.085c0-0.371-0.146-0.625-0.436-0.761
		c-0.291-0.136-0.739-0.204-1.345-0.204h-1.28c-0.507,0-0.946-0.037-1.317-0.111c-0.025,0-0.05,0-0.074,0
		c-0.099,0-0.18,0.031-0.241,0.093c-0.371,0.334-0.557,0.705-0.557,1.113c0,0.445,0.229,0.792,0.687,1.039
		C167.263,23.69,167.881,23.814,168.661,23.814z M167.223,15.344c0.315,0.353,0.714,0.529,1.197,0.529s0.878-0.176,1.188-0.529
		c0.309-0.353,0.464-0.832,0.464-1.438c0-0.606-0.155-1.082-0.464-1.429c-0.31-0.346-0.708-0.52-1.197-0.52
		c-0.489,0-0.888,0.173-1.197,0.52c-0.31,0.347-0.464,0.823-0.464,1.429C166.75,14.512,166.907,14.991,167.223,15.344z"/>
</g>
<g>
	<path fill="#FBC65D" d="M102.625,41.519c-0.495,0-0.947-0.149-1.357-0.449c-0.41-0.299-0.687-0.69-0.83-1.172L96.96,28.257
		c-0.039-0.13-0.059-0.254-0.059-0.371c0-0.26,0.084-0.508,0.254-0.742c0.247-0.338,0.586-0.508,1.016-0.508h0.391
		c0.495,0,0.938,0.153,1.328,0.459c0.391,0.306,0.651,0.707,0.781,1.201l1.289,5.117c0.143,0.547,0.335,1.341,0.576,2.383
		c0.241,1.042,0.426,1.823,0.557,2.344c0.013,0.026,0.036,0.039,0.068,0.039c0.032,0,0.055-0.013,0.068-0.039
		c0.13-0.521,0.315-1.302,0.557-2.344c0.241-1.042,0.433-1.836,0.576-2.383l1.289-5.117c0.117-0.495,0.371-0.895,0.762-1.201
		c0.391-0.306,0.833-0.459,1.328-0.459h0.254c0.417,0,0.755,0.169,1.016,0.508c0.169,0.234,0.254,0.482,0.254,0.742
		c0,0.117-0.02,0.241-0.059,0.371l-3.496,11.641c-0.156,0.482-0.437,0.873-0.84,1.172c-0.404,0.3-0.859,0.449-1.367,0.449H102.625z"
		/>
	<path fill="#FBC65D" d="M112.413,29.162c-0.482,0-0.881-0.142-1.197-0.427c-0.315-0.284-0.473-0.649-0.473-1.095
		s0.154-0.807,0.464-1.085c0.309-0.278,0.711-0.417,1.206-0.417c0.47,0,0.863,0.139,1.178,0.417s0.473,0.64,0.473,1.085
		s-0.158,0.811-0.473,1.095C113.275,29.02,112.882,29.162,112.413,29.162z M113.368,41.111c-0.266,0.272-0.591,0.408-0.974,0.408
		c-0.384,0-0.711-0.136-0.983-0.408c-0.272-0.272-0.408-0.6-0.408-0.983V32.26c0-0.383,0.136-0.708,0.408-0.974
		c0.272-0.266,0.6-0.399,0.983-0.399c0.383,0,0.708,0.133,0.974,0.399c0.266,0.266,0.399,0.591,0.399,0.974v7.867
		C113.767,40.511,113.634,40.839,113.368,41.111z"/>
	<path fill="#FBC65D" d="M119.816,41.779c-1.064,0-2.122-0.297-3.173-0.891c-0.248-0.136-0.396-0.358-0.445-0.668
		c-0.013-0.062-0.019-0.117-0.019-0.167c0-0.235,0.074-0.451,0.223-0.649c0.173-0.235,0.408-0.377,0.705-0.427
		c0.074,0,0.142,0,0.204,0c0.223,0,0.427,0.056,0.612,0.167c0.668,0.371,1.323,0.557,1.967,0.557c0.507,0,0.891-0.102,1.15-0.306
		s0.39-0.479,0.39-0.826c0-0.136-0.041-0.269-0.121-0.399c-0.081-0.13-0.17-0.238-0.269-0.325c-0.099-0.086-0.254-0.182-0.464-0.288
		c-0.21-0.105-0.384-0.186-0.52-0.241c-0.136-0.056-0.34-0.139-0.612-0.25c-0.111-0.037-0.192-0.068-0.241-0.093
		c-0.396-0.148-0.742-0.3-1.039-0.455c-0.297-0.154-0.6-0.355-0.909-0.603c-0.31-0.247-0.547-0.544-0.714-0.891
		c-0.167-0.346-0.25-0.729-0.25-1.15c0-0.965,0.362-1.75,1.085-2.356c0.724-0.606,1.679-0.909,2.867-0.909
		c0.952,0,1.868,0.248,2.746,0.742c0.26,0.136,0.408,0.347,0.445,0.631c0.012,0.062,0.019,0.124,0.019,0.186
		c0,0.223-0.068,0.421-0.204,0.594c-0.173,0.235-0.408,0.377-0.705,0.427c-0.074,0.013-0.155,0.019-0.241,0.019
		c-0.198,0-0.39-0.043-0.575-0.13c-0.495-0.247-0.965-0.371-1.41-0.371c-0.458,0-0.804,0.093-1.039,0.278
		c-0.235,0.186-0.353,0.433-0.353,0.742c0,0.087,0.009,0.167,0.028,0.241s0.056,0.146,0.111,0.213
		c0.056,0.068,0.108,0.13,0.158,0.186c0.049,0.056,0.126,0.111,0.232,0.167c0.105,0.056,0.191,0.102,0.26,0.139
		c0.068,0.037,0.173,0.083,0.315,0.139c0.142,0.056,0.25,0.099,0.325,0.13c0.074,0.031,0.195,0.078,0.362,0.139
		c0.167,0.062,0.288,0.105,0.362,0.13c0.346,0.136,0.634,0.254,0.863,0.353c0.229,0.099,0.488,0.245,0.779,0.436
		c0.291,0.192,0.522,0.39,0.696,0.594c0.173,0.204,0.321,0.464,0.445,0.779c0.124,0.315,0.186,0.665,0.186,1.048
		c0,0.978-0.371,1.781-1.113,2.412S121.152,41.779,119.816,41.779z"/>
	<path fill="#FBC65D" d="M127.572,29.162c-0.482,0-0.881-0.142-1.197-0.427c-0.315-0.284-0.473-0.649-0.473-1.095
		s0.154-0.807,0.464-1.085c0.309-0.278,0.711-0.417,1.206-0.417c0.47,0,0.863,0.139,1.178,0.417s0.473,0.64,0.473,1.085
		s-0.158,0.811-0.473,1.095C128.435,29.02,128.042,29.162,127.572,29.162z M128.527,41.111c-0.266,0.272-0.591,0.408-0.974,0.408
		c-0.384,0-0.711-0.136-0.983-0.408c-0.272-0.272-0.408-0.6-0.408-0.983V32.26c0-0.383,0.136-0.708,0.408-0.974
		c0.272-0.266,0.6-0.399,0.983-0.399c0.383,0,0.708,0.133,0.974,0.399c0.266,0.266,0.399,0.591,0.399,0.974v7.867
		C128.926,40.511,128.793,40.839,128.527,41.111z"/>
	<path fill="#FBC65D" d="M138.306,41.398c-0.612,0.253-1.256,0.38-1.93,0.38c-0.674,0-1.317-0.127-1.93-0.38
		s-1.154-0.612-1.624-1.076c-0.47-0.464-0.848-1.051-1.132-1.763c-0.285-0.711-0.427-1.494-0.427-2.347s0.142-1.639,0.427-2.356
		c0.284-0.717,0.662-1.311,1.132-1.781c0.47-0.47,1.011-0.832,1.624-1.085c0.612-0.253,1.255-0.38,1.93-0.38
		c0.674,0,1.317,0.127,1.93,0.38c0.612,0.254,1.153,0.616,1.624,1.085c0.47,0.47,0.847,1.064,1.132,1.781
		c0.284,0.718,0.427,1.503,0.427,2.356s-0.143,1.636-0.427,2.347c-0.285,0.711-0.662,1.299-1.132,1.763
		C139.459,40.786,138.918,41.145,138.306,41.398z M134.715,38.615c0.396,0.588,0.949,0.881,1.661,0.881
		c0.711,0,1.265-0.293,1.661-0.881c0.396-0.587,0.594-1.388,0.594-2.403c0-1.014-0.198-1.821-0.594-2.421
		c-0.396-0.6-0.95-0.9-1.661-0.9c-0.711,0-1.265,0.3-1.661,0.9c-0.396,0.6-0.594,1.407-0.594,2.421
		C134.122,37.227,134.319,38.028,134.715,38.615z"/>
	<path fill="#FBC65D" d="M146.191,41.111c-0.266,0.272-0.591,0.408-0.974,0.408c-0.384,0-0.711-0.136-0.983-0.408
		c-0.272-0.272-0.408-0.6-0.408-0.983v-8.108c0-0.309,0.111-0.575,0.334-0.798s0.488-0.334,0.798-0.334
		c0.334,0,0.622,0.105,0.863,0.315c0.241,0.21,0.386,0.477,0.436,0.798l0.037,0.241c0,0.025,0.012,0.037,0.037,0.037
		c0.024,0,0.049-0.006,0.074-0.019c1.125-1.101,2.264-1.651,3.414-1.651c2.202,0,3.303,1.429,3.303,4.286v5.232
		c0,0.384-0.136,0.711-0.408,0.983c-0.272,0.272-0.603,0.408-0.993,0.408s-0.721-0.136-0.993-0.408
		c-0.272-0.272-0.408-0.6-0.408-0.983v-4.898c0-0.804-0.118-1.376-0.353-1.716c-0.235-0.34-0.619-0.51-1.15-0.51
		c-0.384,0-0.727,0.083-1.03,0.25c-0.303,0.167-0.653,0.442-1.048,0.826c-0.099,0.087-0.148,0.192-0.148,0.315v5.733
		C146.59,40.511,146.457,40.839,146.191,41.111z"/>
</g>
<g>
	<path fill="#36CEDE" d="M104.675,62.409c-0.964,0-1.862-0.163-2.695-0.488c-0.833-0.325-1.572-0.801-2.217-1.426
		s-1.152-1.429-1.523-2.412c-0.371-0.983-0.557-2.086-0.557-3.311c0-1.198,0.192-2.295,0.576-3.291
		c0.384-0.996,0.905-1.819,1.563-2.471c0.657-0.651,1.413-1.152,2.266-1.504c0.853-0.352,1.754-0.527,2.705-0.527
		c1.211,0,2.337,0.332,3.379,0.996c0.338,0.222,0.527,0.547,0.566,0.977c0,0.039,0,0.085,0,0.137c0,0.365-0.124,0.69-0.371,0.977
		c-0.248,0.287-0.58,0.449-0.996,0.488c-0.065,0.013-0.137,0.02-0.215,0.02c-0.339,0-0.651-0.078-0.938-0.234
		c-0.43-0.208-0.886-0.313-1.367-0.313c-0.99,0-1.82,0.42-2.49,1.26c-0.671,0.84-1.006,1.963-1.006,3.369
		c0,1.472,0.309,2.621,0.928,3.447c0.618,0.827,1.461,1.24,2.529,1.24c0.586,0,1.152-0.149,1.699-0.449
		c0.299-0.182,0.618-0.273,0.957-0.273c0.052,0,0.104,0,0.156,0c0.403,0.026,0.723,0.183,0.957,0.469
		c0.26,0.3,0.391,0.651,0.391,1.055c0,0.456-0.169,0.814-0.508,1.074C107.383,62.012,106.121,62.409,104.675,62.409z"/>
	<path fill="#36CEDE" d="M113.856,61.728c-0.266,0.272-0.591,0.408-0.974,0.408c-0.384,0-0.711-0.136-0.983-0.408
		c-0.272-0.272-0.408-0.6-0.408-0.983v-8.108c0-0.309,0.111-0.575,0.334-0.798s0.488-0.334,0.798-0.334
		c0.321,0,0.603,0.108,0.844,0.325c0.241,0.217,0.38,0.486,0.417,0.807l0.074,0.705c0,0.025,0.012,0.037,0.037,0.037
		c0.024,0,0.043-0.012,0.056-0.037c0.383-0.668,0.841-1.188,1.373-1.559c0.532-0.371,1.076-0.557,1.633-0.557
		c0.012,0,0.031,0,0.056,0c0.334,0.013,0.594,0.167,0.779,0.464c0.136,0.21,0.204,0.439,0.204,0.687
		c0,0.087-0.013,0.186-0.037,0.297c-0.062,0.31-0.232,0.554-0.51,0.733c-0.278,0.18-0.591,0.282-0.937,0.306
		c-0.433,0.025-0.854,0.192-1.262,0.501c-0.408,0.31-0.749,0.779-1.021,1.41c-0.05,0.111-0.074,0.229-0.074,0.353v4.769
		C114.255,61.128,114.122,61.456,113.856,61.728z"/>
	<path fill="#36CEDE" d="M124.201,62.396c-1.534,0-2.799-0.501-3.794-1.503c-0.996-1.002-1.494-2.356-1.494-4.063
		c0-0.829,0.139-1.602,0.417-2.319c0.278-0.717,0.649-1.311,1.113-1.781c0.464-0.47,0.993-0.838,1.586-1.104
		c0.594-0.266,1.206-0.399,1.837-0.399c1.373,0,2.443,0.439,3.21,1.317c0.829,0.928,1.243,2.097,1.243,3.507
		c0,0.433-0.167,0.792-0.501,1.076c-0.347,0.31-0.761,0.464-1.243,0.464h-4.769c-0.037,0-0.074,0.019-0.111,0.056
		s-0.05,0.081-0.037,0.13c0.136,0.804,0.464,1.419,0.983,1.846s1.163,0.64,1.93,0.64c0.52,0,1.026-0.099,1.521-0.297
		c0.148-0.062,0.297-0.093,0.445-0.093c0.111,0,0.216,0.013,0.315,0.037c0.272,0.074,0.47,0.229,0.594,0.464
		c0.086,0.161,0.13,0.328,0.13,0.501c0,0.087-0.013,0.173-0.037,0.26c-0.062,0.272-0.217,0.464-0.464,0.575
		C126.136,62.167,125.178,62.396,124.201,62.396z M121.622,55.604c0,0.037,0.012,0.068,0.037,0.093
		c0.024,0.037,0.062,0.056,0.111,0.056h3.971c0.049,0,0.093-0.019,0.13-0.056s0.056-0.08,0.056-0.13
		c-0.037-0.692-0.223-1.228-0.557-1.605c-0.334-0.377-0.823-0.566-1.466-0.566c-0.557,0-1.045,0.186-1.466,0.557
		C121.894,54.448,121.622,54.999,121.622,55.604z"/>
	<path fill="#36CEDE" d="M133.014,62.396c-0.94,0-1.701-0.297-2.282-0.891c-0.582-0.594-0.872-1.348-0.872-2.264
		c0-1.125,0.473-2,1.419-2.625c0.946-0.625,2.452-1.054,4.518-1.29c0.124-0.012,0.179-0.08,0.167-0.204
		c-0.099-1.101-0.693-1.651-1.781-1.651c-0.606,0-1.274,0.173-2.004,0.52c-0.161,0.074-0.322,0.111-0.482,0.111
		c-0.111,0-0.223-0.019-0.334-0.056c-0.272-0.074-0.477-0.235-0.612-0.482c-0.099-0.173-0.148-0.346-0.148-0.52
		c0-0.099,0.019-0.198,0.056-0.297c0.074-0.284,0.241-0.495,0.501-0.631c1.2-0.594,2.375-0.891,3.525-0.891
		c1.348,0,2.366,0.399,3.052,1.197s1.03,1.964,1.03,3.498v5.084c0,0.31-0.111,0.575-0.334,0.798s-0.489,0.334-0.798,0.334h-0.093
		c-0.31,0-0.579-0.096-0.807-0.288c-0.229-0.191-0.375-0.436-0.436-0.733v-0.093c-0.013-0.012-0.028-0.019-0.046-0.019
		s-0.034,0.006-0.046,0.019C135.117,61.938,134.053,62.396,133.014,62.396z M133.923,60.225c0.643,0,1.286-0.309,1.93-0.928
		c0.086-0.086,0.13-0.191,0.13-0.315v-1.763c0-0.049-0.019-0.093-0.056-0.13c-0.025-0.024-0.062-0.037-0.111-0.037h-0.019
		c-1.175,0.161-2.013,0.408-2.514,0.742s-0.751,0.742-0.751,1.225c0,0.408,0.126,0.711,0.38,0.909
		C133.166,60.126,133.502,60.225,133.923,60.225z"/>
	<path fill="#36CEDE" d="M145.52,62.396c-2.338,0-3.507-1.33-3.507-3.989V53.86c0-0.111-0.05-0.167-0.148-0.167h-0.315
		c-0.285,0-0.526-0.099-0.724-0.297c-0.198-0.198-0.297-0.439-0.297-0.724c0-0.297,0.099-0.553,0.297-0.77
		c0.198-0.216,0.439-0.337,0.724-0.362l0.427-0.037c0.124,0,0.191-0.056,0.204-0.167l0.167-1.521
		c0.037-0.334,0.179-0.612,0.427-0.835c0.247-0.223,0.538-0.334,0.872-0.334c0.321,0,0.597,0.115,0.826,0.343
		c0.229,0.229,0.343,0.504,0.343,0.826v1.503c0,0.124,0.062,0.186,0.186,0.186h1.336c0.297,0,0.553,0.105,0.77,0.315
		c0.216,0.21,0.325,0.47,0.325,0.779c0,0.31-0.108,0.569-0.325,0.779c-0.217,0.21-0.473,0.315-0.77,0.315H145
		c-0.124,0-0.186,0.062-0.186,0.186v4.527c0,1.2,0.482,1.8,1.447,1.8c0.012,0,0.021,0,0.028,0c0.006,0,0.015,0,0.028,0
		c0.284,0,0.544,0.062,0.779,0.186c0.235,0.136,0.377,0.334,0.427,0.594c0.024,0.087,0.037,0.173,0.037,0.26
		c0,0.198-0.05,0.384-0.148,0.557c-0.148,0.26-0.365,0.42-0.649,0.482C146.342,62.358,145.928,62.396,145.52,62.396z"/>
	<path fill="#36CEDE" d="M151.012,49.778c-0.482,0-0.881-0.142-1.197-0.427c-0.315-0.284-0.473-0.649-0.473-1.095
		s0.154-0.807,0.464-1.085c0.309-0.278,0.711-0.417,1.206-0.417c0.47,0,0.863,0.139,1.178,0.417s0.473,0.64,0.473,1.085
		s-0.158,0.811-0.473,1.095C151.875,49.636,151.482,49.778,151.012,49.778z M151.968,61.728c-0.266,0.272-0.591,0.408-0.974,0.408
		c-0.384,0-0.711-0.136-0.983-0.408c-0.272-0.272-0.408-0.6-0.408-0.983v-7.867c0-0.383,0.136-0.708,0.408-0.974
		c0.272-0.266,0.6-0.399,0.983-0.399c0.383,0,0.708,0.133,0.974,0.399c0.266,0.266,0.399,0.591,0.399,0.974v7.867
		C152.367,61.128,152.233,61.456,151.968,61.728z"/>
	<path fill="#36CEDE" d="M160.688,61.709c-0.39,0.285-0.826,0.427-1.308,0.427s-0.922-0.139-1.317-0.417
		c-0.396-0.278-0.668-0.646-0.816-1.104l-2.653-7.793c-0.037-0.111-0.056-0.223-0.056-0.334c0-0.198,0.062-0.39,0.186-0.575
		c0.198-0.272,0.47-0.408,0.816-0.408c0.42,0,0.798,0.124,1.132,0.371c0.334,0.248,0.557,0.569,0.668,0.965l1.169,3.952
		c0.099,0.408,0.253,0.999,0.464,1.772c0.21,0.773,0.334,1.247,0.371,1.419c0.012,0.025,0.034,0.037,0.065,0.037
		c0.031,0,0.052-0.012,0.065-0.037c0.148-0.631,0.427-1.694,0.835-3.191l1.188-4.008c0.111-0.383,0.325-0.692,0.64-0.928
		c0.315-0.235,0.671-0.353,1.067-0.353c0.334,0,0.6,0.13,0.798,0.39c0.124,0.173,0.186,0.359,0.186,0.557
		c0,0.099-0.019,0.204-0.056,0.315l-2.616,7.83C161.353,61.054,161.078,61.425,160.688,61.709z"/>
	<path fill="#36CEDE" d="M167.711,49.778c-0.482,0-0.881-0.142-1.197-0.427c-0.315-0.284-0.473-0.649-0.473-1.095
		s0.154-0.807,0.464-1.085c0.309-0.278,0.711-0.417,1.206-0.417c0.47,0,0.863,0.139,1.178,0.417s0.473,0.64,0.473,1.085
		s-0.158,0.811-0.473,1.095C168.574,49.636,168.181,49.778,167.711,49.778z M168.667,61.728c-0.266,0.272-0.591,0.408-0.974,0.408
		c-0.384,0-0.711-0.136-0.983-0.408c-0.272-0.272-0.408-0.6-0.408-0.983v-7.867c0-0.383,0.136-0.708,0.408-0.974
		c0.272-0.266,0.6-0.399,0.983-0.399c0.383,0,0.708,0.133,0.974,0.399c0.266,0.266,0.399,0.591,0.399,0.974v7.867
		C169.066,61.128,168.933,61.456,168.667,61.728z"/>
	<path fill="#36CEDE" d="M175.968,62.396c-2.338,0-3.507-1.33-3.507-3.989V53.86c0-0.111-0.05-0.167-0.148-0.167h-0.315
		c-0.285,0-0.526-0.099-0.724-0.297c-0.198-0.198-0.297-0.439-0.297-0.724c0-0.297,0.099-0.553,0.297-0.77
		c0.198-0.216,0.439-0.337,0.724-0.362l0.427-0.037c0.124,0,0.191-0.056,0.204-0.167l0.167-1.521
		c0.037-0.334,0.179-0.612,0.427-0.835c0.247-0.223,0.538-0.334,0.872-0.334c0.321,0,0.597,0.115,0.826,0.343
		c0.229,0.229,0.343,0.504,0.343,0.826v1.503c0,0.124,0.062,0.186,0.186,0.186h1.336c0.297,0,0.553,0.105,0.77,0.315
		c0.216,0.21,0.325,0.47,0.325,0.779c0,0.31-0.108,0.569-0.325,0.779c-0.217,0.21-0.473,0.315-0.77,0.315h-1.336
		c-0.124,0-0.186,0.062-0.186,0.186v4.527c0,1.2,0.482,1.8,1.447,1.8c0.012,0,0.021,0,0.028,0c0.006,0,0.015,0,0.028,0
		c0.284,0,0.544,0.062,0.779,0.186c0.235,0.136,0.377,0.334,0.427,0.594c0.024,0.087,0.037,0.173,0.037,0.26
		c0,0.198-0.05,0.384-0.148,0.557c-0.148,0.26-0.365,0.42-0.649,0.482C176.791,62.358,176.376,62.396,175.968,62.396z"/>
	<path fill="#36CEDE" d="M180.978,66.459c-0.136,0-0.26-0.006-0.371-0.019c-0.31-0.013-0.544-0.148-0.705-0.408
		c-0.111-0.186-0.167-0.377-0.167-0.575c0-0.087,0.012-0.18,0.037-0.278c0.124-0.532,0.575-0.854,1.354-0.965
		c0.792-0.124,1.336-0.656,1.633-1.596l0.148-0.445c0.037-0.124,0.031-0.241-0.019-0.353l-3.563-8.962
		c-0.05-0.136-0.074-0.26-0.074-0.371c0-0.186,0.062-0.358,0.186-0.52c0.186-0.284,0.445-0.427,0.779-0.427
		c0.42,0,0.801,0.124,1.141,0.371c0.34,0.248,0.578,0.569,0.714,0.965l1.243,3.6c0.037,0.099,0.328,1.089,0.872,2.969
		c0.012,0.025,0.034,0.037,0.065,0.037c0.031,0,0.052-0.012,0.065-0.037c0.074-0.321,0.198-0.813,0.371-1.475
		c0.173-0.662,0.297-1.16,0.371-1.494l1.095-3.655c0.111-0.371,0.325-0.677,0.64-0.918s0.671-0.362,1.067-0.362
		c0.334,0,0.594,0.136,0.779,0.408c0.124,0.161,0.186,0.34,0.186,0.538c0,0.099-0.019,0.204-0.056,0.315l-3.34,9.704
		c-0.507,1.348-1.095,2.344-1.763,2.987C183,66.137,182.104,66.459,180.978,66.459z"/>
</g>
<g>
	<path fill="#90743C" d="M49.551,2c0.198-0.002,2.372,1.388,2.698,1.587l28.336,17.366c0.773,0.473,5.1,2.814,5.301,3.521
		c0.198,0.696-0.137,1.445-0.871,1.628c-0.851,0.212-2.489-1.047-3.301-1.518v45.075c0.988,0.066,2.205,0.004,3.227,0.002
		l106.364-0.005c2.083-0.001,5.539-0.479,5.406,2.753c-0.061,1.484,0.141,3.222-0.113,4.683c-0.44,2.532-4.491,1.853-6.325,1.853
		H48.162L8.733,78.942c-2.811,0.003-6.677,0.806-6.332-3.422c0.401-4.935-1.044-5.923,4.955-5.861L7.355,39.938
		c-0.002-1.259-0.078-2.458,0.001-3.713c3.1-2.401,6.577-4.155,10.135-1.096l0.002-7.15c0-1.137,0.041-2.475-0.002-3.595
		c-1.159,0.74-4.413,3.299-4.236,0.097c0.042-0.762,10.384-6.701,11.585-7.444l8.848-5.379C38.901,8.441,44.266,5.072,49.551,2z"/>
	<path fill="#FBC65D" d="M49.551,4.811c0.498,0.286,1.064,0.688,1.57,1.001l16.836,10.348c3.714,2.311,7.604,4.415,11.198,6.91
		v21.718c-0.896-0.082-1.292-0.063-2.177,0l-0.005-7.274c-0.002-3.729,0.478-6.435-4.156-6.288l-4.416-0.001
		c-5.418-0.008-5.093,1.312-5.082,6.332l0.001,7.32l-4.64,0.003c-0.742,0-1.675,0.028-2.401-0.003l0.003-7.534
		c0.002-5.483-0.035-6.16-6.254-6.114c-6.14,0.045-7.122-0.76-7.12,6.377l0.005,7.183h-7.142l0.002-7.48
		c0.004-5.309,0.066-6.087-5.261-6.085l-3.938,0.003c-3.468-0.033-4.421,0.763-4.411,4.315l0.004,9.04
		c-0.606-0.035-1.557-0.003-2.188,0V23.069c0.701-0.641,2.376-1.602,3.234-2.133L49.551,4.811z"/>
	<path fill="#F5AE4A" d="M49.551,4.811c0.498,0.286,1.064,0.688,1.57,1.001l16.836,10.348c3.714,2.311,7.604,4.415,11.198,6.91
		v21.718c-0.896-0.082-1.292-0.063-2.177,0l-0.005-7.274c-0.002-3.729,0.478-6.435-4.156-6.288v-7.247
		c-1.514-1.042-2.996-1.924-4.561-2.886l-8.469-5.171c-3.092-1.913-7.017-4.686-10.237-6.262c-0.676,0.315-2.224,1.321-2.961,1.772
		l-15.798,9.601c-0.742,0.454-3.69,2.233-4.219,2.729c0.03,1.503-0.253,6.25,0,7.463c-3.468-0.033-4.421,0.763-4.411,4.315
		l0.004,9.04c-0.606-0.035-1.557-0.003-2.188,0V23.069c0.701-0.641,2.376-1.602,3.234-2.133L49.551,4.811z"/>
	<path fill="#90743C" d="M49.256,12.739c5.539-0.763,10.449,4.709,10.579,10.14c0.067,2.787-1.885,2.149-4.101,2.149l-5.8-0.004
		l-6.311,0.006c-1.885,0.002-4.404,0.683-4.443-1.723C39.088,17.699,43.546,12.861,49.256,12.739z"/>
	<path fill="#F6F1E9" d="M49.256,15.14c4.329-0.362,7.729,3.216,8.132,7.401h-7.455h-8.295
		C41.993,18.333,45.095,15.453,49.256,15.14z"/>
	<path fill="#D4BCAF" d="M4.841,72.133h189.429v4.37H4.841V72.133z"/>
	<path fill="#FC7B6A" d="M13.022,45.226c1.633-0.582,3.655,0.708,4.23,2.247c0.422,1.13,0.24,7.973,0.24,9.642l-0.002,12.545h-4.469
		H9.811L9.806,50.064C9.794,47.856,10.238,45.345,13.022,45.226z"/>
	<path fill="#F4514B" d="M13.022,45.226l0.001,21.988c0.001,0.644-0.037,1.836-0.001,2.445H9.811L9.806,50.064
		C9.794,47.856,10.238,45.345,13.022,45.226z"/>
	<path fill="#96DFF7" d="M65.751,36.646c-0.032-3.671-0.312-2.923,3.659-2.919l3.028-0.006c2.972-0.034,2.132,0.739,2.122,3.721
		c0.062,1.452,0.002,3.389,0.002,4.866l-0.002,9.673h-8.81C65.752,46.923,65.68,41.692,65.751,36.646z"/>
	<path fill="#36CEDE" d="M65.751,36.646c-0.032-3.671-0.312-2.923,3.659-2.919l3.028-0.006c2.972-0.034,2.132,0.739,2.122,3.721
		l-0.005,0.055c-0.047,0.582,0.06,1.877-0.08,2.346c-0.03-1.352,0.244-1.141-0.997-1.178c-0.211,1.287,0.099,1.184-0.151,0.023
		c-0.009,0.592-0.054,2.64,0,3.149c-1.964-0.001-4.131-0.05-6.076,0l-0.31-0.012c-0.046-0.131-0.017-1.536-0.017-1.747l-0.098,0.188
		c-0.089-0.27,0.068-0.612,0.015-0.949c-0.279,0.175-0.747,0.224-1.091,0.287c0.058,0.079,0.086,0.794,0.045,0.925
		C65.729,39.256,65.833,37.787,65.751,36.646z"/>
	<path fill="#F6F1E9" d="M65.751,36.646c-0.032-3.671-0.312-2.923,3.659-2.919l3.028-0.006c2.972-0.034,2.132,0.739,2.122,3.721
		l-0.005,0.055c-0.047,0.582,0.06,1.877-0.08,2.346c-0.03-1.352,0.244-1.141-0.997-1.178c-0.211,1.287,0.099,1.184-0.151,0.023
		c0.001-1.124,0.02-2.316,0-3.436h-6.402c-0.004,1.569-0.04,3.268,0,4.826l-0.098,0.188c-0.089-0.27,0.068-0.612,0.015-0.949
		c-0.279,0.175-0.747,0.224-1.091,0.287c0.058,0.079,0.086,0.794,0.045,0.925C65.729,39.256,65.833,37.787,65.751,36.646z"/>
	<path fill="#F6F1E9" d="M73.327,41.838c0.324,0.344,0.24,1.652,0.214,2.105c-2.186-0.03-4.427,0.002-6.616,0
		c-0.103-0.628-0.527-1.916,0.326-2.105C69.196,41.788,71.363,41.837,73.327,41.838z"/>
	<path fill="#F6F1E9" d="M66.925,45.408c0.719-0.092,6.278-0.134,6.548,0.076c0.22,0.489,0.149,1.302,0.068,1.829
		c-1.963,0.023-4.695,0.153-6.616,0C66.76,46.434,66.749,46.267,66.925,45.408z"/>
	<path fill="#96DFF7" d="M26.011,33.727c0.973-0.001,6.734-0.094,7.28,0.15c0.135,0.314,0.106,1.012,0.108,1.376v16.729
		c-2.84,0-6.001,0.074-8.816,0l-0.001-12.252c0-1.856,0.079-4.202,0.001-6.003C25.073,33.737,25.523,33.739,26.011,33.727z"/>
	<path fill="#36CEDE" d="M26.011,33.727c0.973-0.001,6.734-0.094,7.28,0.15c0.135,0.314,0.106,1.012,0.108,1.376
		c-0.724,0.067-1.002,0.061-1.736,0c0.629,0.219,0.302,5.343,0.302,6.355H26.87c-0.21-0.022-0.632-0.004-0.858,0
		c0-2.063,0.054-4.312,0-6.355C25.922,34.779,25.977,34.211,26.011,33.727z"/>
	<path fill="#F6F1E9" d="M26.011,33.727c0.973-0.001,6.734-0.094,7.28,0.15c0.135,0.314,0.106,1.012,0.108,1.376
		c-0.724,0.067-1.002,0.061-1.736,0c-0.307,0.037-1.381,0.006-1.761,0.005l-3.892-0.005C25.922,34.779,25.977,34.211,26.011,33.727z
		"/>
	<path fill="#F6F1E9" d="M26.87,41.608h5.096c-0.032,0.713-0.042,1.154,0,1.874h-5.954c-0.139-0.855-0.127-1.008,0-1.874
		C26.305,41.619,26.577,41.613,26.87,41.608z"/>
	<path fill="#F6F1E9" d="M26.011,45.408h5.954v2.057h-5.954C25.888,46.548,25.886,46.327,26.011,45.408z"/>
	<path fill="#FBC65D" d="M35.771,47.313h7.142v19.209v3.137h-7.142v-3.137V47.313z"/>
	<path fill="#F5AE4A" d="M35.771,66.522c2.229,0.066,4.9,0.096,7.142,0v3.137h-7.142V66.522z"/>
	<path fill="#FBC65D" d="M56.279,47.313h7.041v19.209v3.137h-7.041v-3.137V47.313z"/>
	<path fill="#F5AE4A" d="M56.279,66.522c2.074-0.055,4.945-0.045,7.041,0v3.137h-7.041V66.522z"/>
	<path fill="#96DFF7" d="M45.329,35.129c0.001-0.376-0.079-1.271,0.417-1.31c1.398-0.112,7.788-0.793,8.109,0.754
		c0.036,0.524,0.002,1.349,0.001,1.9l-0.001,15.508c-2.828,0.002-5.701,0.029-8.526,0l-0.002-11.263
		C45.327,39.009,45.253,36.776,45.329,35.129z"/>
	<path fill="#36CEDE" d="M45.329,35.129c0.001-0.376-0.079-1.271,0.417-1.31c1.398-0.112,7.788-0.793,8.109,0.754
		c-0.048,0.913-0.545,0.627-1.296,0.68v6.585h-5.561c0.23-1.625-0.018-4.774,0-6.585c0.23,0.013,0.468,0.004,0.699,0
		C46.95,35.154,46.053,35.292,45.329,35.129z"/>
	<path fill="#F6F1E9" d="M45.329,35.129c0.001-0.376-0.079-1.271,0.417-1.31c1.398-0.112,7.788-0.793,8.109,0.754
		c-0.048,0.913-0.545,0.627-1.296,0.68h-4.862C46.95,35.154,46.053,35.292,45.329,35.129z"/>
	<path fill="#F6F1E9" d="M46.998,41.838h5.561c0.409,0.493,0.274,1.317,0.23,1.934h-5.792C46.95,43.152,46.876,42.447,46.998,41.838
		z"/>
	<path fill="#F6F1E9" d="M50.539,45.226c0.764-0.016,1.486-0.012,2.25,0c0.082,0.629,0.041,1.215,0,1.843
		c-1.155,0.02-2.374,0-3.533,0h-2.259v-1.843H50.539z"/>
	<path fill="#96DFF7" d="M24.583,54.475c2.845-0.019,5.984-0.056,8.816,0v12.048c0.054,0.776,0.403,2.817-0.674,3.066
		c-0.794,0.183-6.946,0.325-7.774-0.183c-0.532-0.724-0.379-1.97-0.368-2.884V54.475z"/>
	<path fill="#36CEDE" d="M24.583,66.522H33.4c0.054,0.776,0.403,2.817-0.674,3.066c-0.794,0.183-6.946,0.325-7.774-0.183
		C24.419,68.683,24.573,67.437,24.583,66.522z"/>
	<path fill="#96DFF7" d="M65.751,54.475h8.81v12.048c-0.112,3.282,0.347,3.162-3.092,3.141l-4.276,0.013
		c-1.978-0.007-1.453-1.744-1.441-3.153V54.475z"/>
	<path fill="#36CEDE" d="M65.751,66.522h8.81c-0.112,3.282,0.347,3.162-3.092,3.141l-4.276,0.013
		C65.215,69.669,65.739,67.932,65.751,66.522z"/>
	<path fill="#96DFF7" d="M45.329,54.475h8.526v12.048c0.011,1.065,0.245,2.426-0.655,3.137c-1.954,0.036-5.387,0.198-7.272,0
		c-0.899-0.811-0.605-2-0.599-3.137V54.475z"/>
	<path fill="#36CEDE" d="M45.329,66.522h8.526c0.011,1.065,0.245,2.426-0.655,3.137c-1.954,0.036-5.387,0.198-7.272,0
		C45.028,68.849,45.322,67.659,45.329,66.522z"/>
	<path fill="#F6F1E9" d="M13.022,35.984c5.02-0.099,4.479,4.536,4.469,7.959c-1.256-0.761-2.068-1.216-3.594-1.322
		c-1.877-0.002-2.461,0.256-4.086,1.15l-0.008-3.146C9.797,37.992,9.975,36.681,13.022,35.984z"/>
	<path fill="#D4BCAF" d="M9.811,43.771l-0.008-3.146c-0.006-2.634,0.172-3.945,3.219-4.642c0.002,2.148,0.054,4.504,0,6.637
		c0.301-0.018,0.578-0.052,0.875,0C12.02,42.619,11.436,42.877,9.811,43.771z"/>
	<path fill="#FBC65D" d="M19.978,47.313c0.764-0.021,1.424-0.026,2.188,0v19.209c-0.73-0.004-1.458-0.009-2.188,0V47.313z"/>
	<path fill="#FBC65D" d="M76.979,47.313c0.782-0.036,1.385-0.052,2.177,0c0.052,2.047-0.001,4.305-0.001,6.376l0.001,12.833
		c-0.515-0.109-1.619-0.029-2.177,0V47.313z"/>
	<path fill="#F5AE4A" d="M19.978,66.522c0.73-0.009,1.458-0.004,2.188,0v3.137c-0.756,0.018-1.434,0.021-2.188,0V66.522z"/>
	<path fill="#F5AE4A" d="M76.979,66.522c0.558-0.029,1.662-0.109,2.177,0v3.137c-0.705-0.018-1.467-0.002-2.177,0V66.522z"/>
</g>
<g>
	<path fill="#90743C" d="M18.885,106.348c0.209,0.2,0.314,0.445,0.314,0.735c0,0.291-0.105,0.536-0.314,0.736
		c-0.21,0.2-0.46,0.3-0.752,0.3h-5.305c-0.183,0-0.273,0.091-0.273,0.272v2.534c0,0.345-0.123,0.641-0.369,0.886
		c-0.246,0.246-0.538,0.368-0.875,0.368c-0.337,0-0.629-0.123-0.875-0.368c-0.246-0.245-0.369-0.541-0.369-0.886v-2.534
		c0-0.181-0.091-0.272-0.273-0.272H4.243c-0.273,0-0.515-0.1-0.725-0.3c-0.21-0.2-0.314-0.445-0.314-0.736
		c0-0.29,0.104-0.535,0.314-0.735c0.209-0.2,0.451-0.3,0.725-0.3h5.551c0.182,0,0.273-0.091,0.273-0.272v-1.227
		c0-0.181-0.091-0.272-0.273-0.272H7.168c-0.656,0-1.217-0.231-1.682-0.695s-0.697-1.022-0.697-1.676v-3.161
		c0-0.654,0.232-1.212,0.697-1.676s1.025-0.695,1.682-0.695h8.34c0.656,0,1.217,0.231,1.682,0.695s0.697,1.022,0.697,1.676v3.161
		c0,0.654-0.232,1.212-0.697,1.676s-1.025,0.695-1.682,0.695h-2.68c-0.183,0-0.273,0.091-0.273,0.272v1.227
		c0,0.182,0.091,0.272,0.273,0.272h5.305C18.425,106.048,18.675,106.148,18.885,106.348z M19.227,93.213
		c-0.037-0.018-0.068-0.022-0.096-0.014c-0.027,0.009-0.041,0.041-0.041,0.095c0,0.455-0.164,0.845-0.492,1.172
		c-0.328,0.327-0.729,0.491-1.203,0.491H4.243c-0.273,0-0.511-0.1-0.711-0.3c-0.201-0.2-0.301-0.44-0.301-0.722
		c0-0.281,0.1-0.522,0.301-0.722c0.2-0.2,0.438-0.3,0.711-0.3h2.68c0.055,0,0.1-0.022,0.137-0.068
		c0.036-0.045,0.055-0.096,0.055-0.15c-0.091-0.382-0.21-0.781-0.355-1.199c-0.073-0.218-0.055-0.417,0.055-0.6
		c0.109-0.181,0.273-0.29,0.492-0.327v-0.027H5.008c-0.273,0-0.506-0.096-0.697-0.286c-0.191-0.191-0.287-0.422-0.287-0.695
		s0.096-0.504,0.287-0.695c0.191-0.191,0.424-0.286,0.697-0.286h4.84c0.146,0,0.219-0.073,0.219-0.218v-0.545
		c0-0.327,0.123-0.613,0.369-0.858s0.538-0.368,0.875-0.368c0.337,0,0.629,0.123,0.875,0.368s0.369,0.531,0.369,0.858v0.545
		c0,0.146,0.073,0.218,0.219,0.218h4.895c0.273,0,0.506,0.095,0.697,0.286c0.191,0.19,0.287,0.422,0.287,0.695
		s-0.096,0.504-0.287,0.695c-0.191,0.19-0.424,0.286-0.697,0.286h-1.805v0.027c0.164,0.037,0.278,0.123,0.342,0.259
		c0.063,0.136,0.05,0.268-0.041,0.395c-0.31,0.545-0.593,1.036-0.848,1.472c-0.019,0.054-0.014,0.104,0.014,0.15
		s0.068,0.068,0.123,0.068h3.391c-0.019-0.018-0.027-0.041-0.027-0.068c0-0.027,0.009-0.05,0.027-0.068
		c1.002-0.563,2.01-1.258,3.021-2.084s1.891-1.676,2.639-2.548c0.237-0.309,0.547-0.518,0.93-0.627
		c0.164-0.036,0.319-0.055,0.465-0.055c0.219,0,0.428,0.037,0.629,0.109c0.31,0.127,0.51,0.354,0.602,0.681
		c0.036,0.091,0.055,0.182,0.055,0.272c0,0.218-0.073,0.418-0.219,0.6c-1.313,1.599-2.871,3.07-4.676,4.415
		c-0.401,0.272-0.82,0.409-1.258,0.409c-0.091,0-0.183-0.009-0.273-0.027c-0.565-0.072-1.066-0.3-1.504-0.681L19.227,93.213z
		 M7.442,98.009c-0.183,0-0.273,0.091-0.273,0.272v0.981c0,0.182,0.091,0.273,0.273,0.273h7.629c0.182,0,0.273-0.091,0.273-0.273
		v-0.981c0-0.181-0.091-0.272-0.273-0.272H7.442z M7.442,101.061c-0.183,0-0.273,0.091-0.273,0.272v1.063
		c0,0.182,0.091,0.273,0.273,0.273h7.629c0.182,0,0.273-0.091,0.273-0.273v-1.063c0-0.182-0.091-0.272-0.273-0.272H7.442z
		 M13.84,90.788c0.018-0.055,0.009-0.109-0.027-0.164c-0.037-0.054-0.082-0.082-0.137-0.082H8.864c-0.055,0-0.096,0.027-0.123,0.082
		c-0.027,0.055-0.032,0.1-0.014,0.136c0.2,0.4,0.374,0.836,0.52,1.308c0.055,0.2,0.027,0.381-0.082,0.545S8.9,92.877,8.7,92.913
		h4.703c-0.109-0.036-0.183-0.1-0.219-0.191c-0.037-0.09-0.037-0.181,0-0.272C13.439,91.905,13.658,91.351,13.84,90.788z
		 M25.872,103.568c0.237-0.327,0.538-0.545,0.902-0.654c0.182-0.072,0.355-0.109,0.52-0.109c0.2,0,0.392,0.037,0.574,0.109
		c0.328,0.127,0.547,0.364,0.656,0.708c0.055,0.109,0.082,0.227,0.082,0.354c0,0.2-0.064,0.391-0.191,0.572
		c-1.951,2.816-4.539,5.15-7.766,7.003c-0.237,0.127-0.483,0.191-0.738,0.191c-0.109,0-0.228-0.009-0.355-0.027
		c-0.383-0.091-0.711-0.291-0.984-0.6c-0.183-0.218-0.273-0.454-0.273-0.708c0-0.054,0.009-0.118,0.027-0.191
		c0.055-0.327,0.228-0.563,0.52-0.708c1.403-0.745,2.721-1.625,3.951-2.643C24.026,105.848,25.051,104.749,25.872,103.568z
		 M25.27,95.666c0.255-0.291,0.565-0.481,0.93-0.572c0.164-0.055,0.319-0.082,0.465-0.082c0.219,0,0.428,0.046,0.629,0.136
		c0.31,0.109,0.51,0.327,0.602,0.654c0.018,0.091,0.027,0.173,0.027,0.245c0,0.218-0.073,0.418-0.219,0.6
		c-1.695,1.962-3.628,3.688-5.797,5.177c-0.255,0.146-0.529,0.218-0.82,0.218c-0.073,0-0.146,0-0.219,0
		c-0.365-0.055-0.684-0.218-0.957-0.491c-0.201-0.2-0.301-0.436-0.301-0.708c0-0.363,0.146-0.636,0.438-0.817
		C22.107,98.736,23.848,97.283,25.27,95.666z"/>
	<path fill="#90743C" d="M37.93,88.226c0.164-0.345,0.419-0.59,0.766-0.736c0.2-0.09,0.401-0.136,0.602-0.136
		c0.146,0,0.301,0.027,0.465,0.082c0.346,0.109,0.592,0.327,0.738,0.654c0.073,0.164,0.109,0.318,0.109,0.463
		c0,0.182-0.046,0.354-0.137,0.518c-0.693,1.472-1.468,2.889-2.324,4.251c-0.091,0.164-0.137,0.336-0.137,0.518v17.004
		c0,0.363-0.128,0.672-0.383,0.927c-0.255,0.254-0.561,0.381-0.916,0.381s-0.661-0.127-0.916-0.381
		c-0.255-0.255-0.383-0.563-0.383-0.927V97.491c0-0.036-0.023-0.063-0.068-0.082c-0.046-0.018-0.087-0.009-0.123,0.027
		c-0.62,0.763-1.267,1.499-1.941,2.208c-0.219,0.218-0.474,0.327-0.766,0.327c-0.073,0-0.146-0.009-0.219-0.027
		c-0.383-0.055-0.675-0.254-0.875-0.6c-0.164-0.309-0.246-0.627-0.246-0.954c0-0.091,0-0.182,0-0.272
		c0.073-0.454,0.264-0.835,0.574-1.145C34.248,94.558,36.308,91.642,37.93,88.226z M47.856,109.372h4.867
		c0.638,0,1.071-0.236,1.299-0.708c0.228-0.472,0.396-1.444,0.506-2.916c0.018-0.291,0.164-0.504,0.438-0.641s0.547-0.14,0.82-0.014
		c0.364,0.164,0.656,0.409,0.875,0.736c0.182,0.272,0.273,0.563,0.273,0.872c0,0.055,0,0.109,0,0.164
		c-0.201,1.853-0.588,3.143-1.162,3.87c-0.574,0.726-1.527,1.09-2.857,1.09H47.61c-1.586,0-2.662-0.3-3.227-0.899
		c-0.565-0.599-0.848-1.744-0.848-3.433V88.553c0-0.363,0.123-0.672,0.369-0.927c0.246-0.254,0.551-0.381,0.916-0.381
		c0.364,0,0.674,0.127,0.93,0.381c0.255,0.255,0.383,0.563,0.383,0.927v8.42c0,0.054,0.027,0.1,0.082,0.136s0.109,0.037,0.164,0
		c2.442-1.38,4.584-2.816,6.426-4.306c0.273-0.218,0.583-0.327,0.93-0.327c0.036,0,0.082,0,0.137,0
		c0.401,0.037,0.729,0.209,0.984,0.518c0.219,0.254,0.328,0.545,0.328,0.872c0,0.055-0.009,0.119-0.027,0.191
		c-0.037,0.4-0.219,0.708-0.547,0.927c-2.005,1.38-4.749,2.979-8.23,4.796c-0.164,0.073-0.246,0.2-0.246,0.381v7.357
		c0,0.782,0.104,1.286,0.314,1.513C46.657,109.259,47.126,109.372,47.856,109.372z"/>
	<path fill="#90743C" d="M73.176,88.199c0,0.164,0.082,0.246,0.246,0.246h9.516c0.31,0,0.574,0.109,0.793,0.327
		c0.219,0.218,0.328,0.486,0.328,0.804s-0.109,0.585-0.328,0.804c-0.219,0.218-0.483,0.327-0.793,0.327H61.063
		c-0.328,0-0.602-0.109-0.82-0.327c-0.219-0.218-0.328-0.486-0.328-0.804s0.109-0.586,0.328-0.804
		c0.219-0.218,0.492-0.327,0.82-0.327h9.215c0.164,0,0.246-0.082,0.246-0.246v-0.926c0-0.382,0.127-0.699,0.383-0.954
		c0.255-0.254,0.569-0.381,0.943-0.381c0.374,0,0.688,0.127,0.943,0.381c0.255,0.255,0.383,0.572,0.383,0.954V88.199z M80.75,99.372
		c0.656,0,1.217,0.231,1.682,0.695s0.697,1.022,0.697,1.676v6.895c0,0.672-0.091,1.199-0.273,1.58
		c-0.183,0.382-0.511,0.672-0.984,0.872c-0.474,0.182-1.24,0.309-2.297,0.382c-0.055,0-0.119,0-0.191,0
		c-0.565,0-1.085-0.182-1.559-0.545c-0.529-0.399-0.948-0.917-1.258-1.553c-0.073-0.163-0.201-0.245-0.383-0.245h-7.082
		c-0.091,0-0.137,0.045-0.137,0.136v0.082c0,0.309-0.109,0.572-0.328,0.79c-0.219,0.218-0.488,0.327-0.807,0.327
		c-0.319,0-0.588-0.109-0.807-0.327c-0.219-0.218-0.328-0.481-0.328-0.79v-3.87c0-0.654,0.232-1.213,0.697-1.676
		c0.465-0.463,1.025-0.695,1.682-0.695h5.852c0.656,0,1.217,0.232,1.682,0.695c0.465,0.463,0.697,1.021,0.697,1.676v3.379
		c0,0.182,0.091,0.272,0.273,0.272c0.456,0.019,0.848,0.027,1.176,0.027s0.592-0.009,0.793-0.027
		c0.401-0.018,0.656-0.054,0.766-0.109c0.127-0.072,0.191-0.208,0.191-0.409v-6.786c0-0.181-0.091-0.272-0.273-0.272H63.907
		c-0.183,0-0.273,0.091-0.273,0.272v8.502c0,0.345-0.123,0.64-0.369,0.885c-0.246,0.246-0.547,0.368-0.902,0.368
		s-0.656-0.123-0.902-0.368c-0.246-0.245-0.369-0.541-0.369-0.885v-8.584c0-0.654,0.232-1.212,0.697-1.676s1.025-0.695,1.682-0.695
		H80.75z M64.481,94.412c0-0.654,0.232-1.213,0.697-1.676c0.465-0.463,1.025-0.695,1.682-0.695h10.281
		c0.656,0,1.217,0.232,1.682,0.695c0.465,0.463,0.697,1.022,0.697,1.676v1.09c0,0.654-0.232,1.212-0.697,1.676
		s-1.025,0.695-1.682,0.695H66.86c-0.656,0-1.217-0.231-1.682-0.695s-0.697-1.022-0.697-1.676V94.412z M76.622,96.102
		c0.182,0,0.273-0.091,0.273-0.272v-1.717c0-0.182-0.091-0.272-0.273-0.272H67.27c-0.183,0-0.273,0.091-0.273,0.272v1.717
		c0,0.182,0.091,0.272,0.273,0.272H76.622z M74.708,107.301c0.182,0,0.273-0.091,0.273-0.272v-1.826
		c0-0.182-0.091-0.272-0.273-0.272h-5.469c-0.183,0-0.273,0.091-0.273,0.272v1.826c0,0.182,0.091,0.272,0.273,0.272H74.708z"/>
	<path fill="#90743C" d="M101.286,91.196c0,0.182,0.091,0.272,0.273,0.272h7.355c0.656,0,1.217,0.232,1.682,0.695
		c0.465,0.463,0.697,1.022,0.697,1.676v9.619c0,0.364-0.132,0.681-0.396,0.954c-0.265,0.272-0.588,0.409-0.971,0.409
		s-0.707-0.136-0.971-0.409c-0.265-0.272-0.396-0.59-0.396-0.954c0-0.109-0.046-0.164-0.137-0.164h-6.863
		c-0.183,0-0.273,0.091-0.273,0.272v7.249c0,0.382-0.132,0.704-0.396,0.967c-0.265,0.263-0.583,0.396-0.957,0.396
		c-0.374,0-0.693-0.132-0.957-0.396c-0.265-0.263-0.396-0.585-0.396-0.967v-7.249c0-0.181-0.091-0.272-0.273-0.272h-6.809
		c-0.109,0-0.164,0.055-0.164,0.164v0.191c0,0.363-0.128,0.672-0.383,0.926c-0.255,0.255-0.565,0.381-0.93,0.381
		c-0.365,0-0.675-0.126-0.93-0.381c-0.255-0.254-0.383-0.563-0.383-0.926v-9.81c0-0.654,0.232-1.213,0.697-1.676
		c0.465-0.463,1.025-0.695,1.682-0.695h7.219c0.182,0,0.273-0.09,0.273-0.272v-3.215c0-0.382,0.132-0.704,0.396-0.967
		c0.264-0.263,0.583-0.396,0.957-0.396c0.374,0,0.692,0.132,0.957,0.396c0.264,0.263,0.396,0.585,0.396,0.967V91.196z
		 M91.333,100.489c0,0.182,0.091,0.272,0.273,0.272h6.699c0.182,0,0.273-0.091,0.273-0.272v-6.213c0-0.182-0.091-0.273-0.273-0.273
		h-6.699c-0.183,0-0.273,0.091-0.273,0.273V100.489z M101.286,100.489c0,0.182,0.091,0.272,0.273,0.272h6.727
		c0.182,0,0.273-0.091,0.273-0.272v-6.213c0-0.182-0.091-0.273-0.273-0.273h-6.727c-0.183,0-0.273,0.091-0.273,0.273V100.489z"/>
	<path fill="#90743C" d="M116.324,89.998c0-0.654,0.232-1.213,0.697-1.676c0.465-0.463,1.025-0.695,1.682-0.695h18.676
		c0.656,0,1.217,0.232,1.682,0.695c0.465,0.463,0.697,1.022,0.697,1.676v20.928c0,0.345-0.123,0.641-0.369,0.886
		c-0.246,0.246-0.542,0.368-0.889,0.368h-0.328c-0.255,0-0.474-0.091-0.656-0.272c-0.183-0.182-0.273-0.4-0.273-0.654
		c0-0.073-0.037-0.109-0.109-0.109h-18.266c-0.073,0-0.109,0.036-0.109,0.109c0,0.254-0.091,0.472-0.273,0.654
		c-0.183,0.181-0.401,0.272-0.656,0.272h-0.273c-0.347,0-0.638-0.119-0.875-0.354c-0.237-0.236-0.355-0.527-0.355-0.872V89.998z
		 M118.758,108.718c0,0.182,0.091,0.272,0.273,0.272h17.938c0.182,0,0.273-0.091,0.273-0.272V90.079
		c0-0.181-0.091-0.272-0.273-0.272h-17.938c-0.183,0-0.273,0.091-0.273,0.272V108.718z M129.012,96.074
		c0,0.182,0.091,0.272,0.273,0.272h6.125c0.219,0,0.401,0.073,0.547,0.218c0.146,0.146,0.219,0.323,0.219,0.532
		s-0.073,0.391-0.219,0.545c-0.146,0.154-0.328,0.231-0.547,0.231h-14.766c-0.219,0-0.401-0.077-0.547-0.231
		c-0.146-0.154-0.219-0.336-0.219-0.545s0.073-0.386,0.219-0.532c0.146-0.145,0.328-0.218,0.547-0.218h5.879
		c0.182,0,0.273-0.091,0.273-0.272v-0.545c0-0.182-0.091-0.272-0.273-0.272h-1.914c-0.602,0-1.117-0.209-1.545-0.627
		c-0.429-0.417-0.643-0.931-0.643-1.54c0-0.608,0.214-1.122,0.643-1.54c0.428-0.418,0.943-0.627,1.545-0.627h6.727
		c0.602,0,1.116,0.209,1.545,0.627c0.428,0.418,0.643,0.931,0.643,1.54c0,0.609-0.214,1.122-0.643,1.54
		c-0.429,0.418-0.943,0.627-1.545,0.627h-2.051c-0.183,0-0.273,0.091-0.273,0.272V96.074z M123.898,107.737
		c-0.656,0-1.217-0.231-1.682-0.695s-0.697-1.022-0.697-1.676v-4.115c0-0.654,0.232-1.212,0.697-1.676
		c0.465-0.463,1.025-0.695,1.682-0.695h8.176c0.656,0,1.217,0.232,1.682,0.695c0.465,0.463,0.697,1.022,0.697,1.676v4.115
		c0,0.654-0.232,1.212-0.697,1.676s-1.025,0.695-1.682,0.695H123.898z M123.816,100.407c-0.183,0-0.273,0.091-0.273,0.273v5.259
		c0,0.182,0.091,0.272,0.273,0.272h8.23c0.182,0,0.273-0.091,0.273-0.272v-5.259c0-0.182-0.091-0.273-0.273-0.273H123.816z
		 M124.828,92.341c-0.183,0-0.273,0.091-0.273,0.272v0.954c0,0.182,0.091,0.272,0.273,0.272h6.207c0.182,0,0.273-0.091,0.273-0.272
		v-0.954c0-0.181-0.091-0.272-0.273-0.272H124.828z M126.934,105.176c-0.529,0-0.98-0.186-1.354-0.559
		c-0.374-0.372-0.561-0.817-0.561-1.335c0-0.518,0.187-0.958,0.561-1.321c0.374-0.363,0.825-0.545,1.354-0.545h1.996
		c0.528,0,0.975,0.182,1.34,0.545c0.364,0.363,0.547,0.804,0.547,1.321c0,0.518-0.183,0.963-0.547,1.335
		c-0.365,0.373-0.812,0.559-1.34,0.559H126.934z M126.824,102.642c-0.183,0-0.273,0.091-0.273,0.272v0.763
		c0,0.182,0.091,0.273,0.273,0.273h2.16c0.182,0,0.273-0.091,0.273-0.273v-0.763c0-0.182-0.091-0.272-0.273-0.272H126.824z"/>
	<path fill="#90743C" d="M157.203,100.244c0,0.182,0.091,0.272,0.273,0.272h9.98c0.273,0,0.501,0.091,0.684,0.272
		c0.182,0.182,0.273,0.4,0.273,0.654c0,0.255-0.091,0.473-0.273,0.654c-0.183,0.182-0.41,0.272-0.684,0.272h-22.914
		c-0.273,0-0.501-0.091-0.684-0.272c-0.183-0.182-0.273-0.399-0.273-0.654c0-0.254,0.091-0.472,0.273-0.654
		c0.182-0.182,0.41-0.272,0.684-0.272h9.762c0.182,0,0.273-0.091,0.273-0.272v-0.791c0-0.181-0.091-0.272-0.273-0.272h-7.93
		c-0.237,0-0.438-0.082-0.602-0.245s-0.246-0.363-0.246-0.6c0-0.236,0.082-0.436,0.246-0.6s0.364-0.245,0.602-0.245h7.93
		c0.182,0,0.273-0.091,0.273-0.272v-0.736c0-0.181-0.091-0.272-0.273-0.272h-7.273c-0.237,0-0.433-0.082-0.588-0.245
		c-0.155-0.164-0.232-0.359-0.232-0.586s0.077-0.418,0.232-0.572c0.155-0.154,0.351-0.232,0.588-0.232h7.273
		c0.182,0,0.273-0.09,0.273-0.272v-0.817c0-0.181-0.091-0.272-0.273-0.272h-9.734c-0.273,0-0.501-0.095-0.684-0.286
		c-0.183-0.191-0.273-0.413-0.273-0.667s0.091-0.472,0.273-0.654c0.182-0.181,0.41-0.272,0.684-0.272h9.734
		c0.182,0,0.273-0.091,0.273-0.272v-0.79c0-0.182-0.091-0.272-0.273-0.272h-6.973c-0.219,0-0.406-0.077-0.561-0.232
		c-0.155-0.154-0.232-0.34-0.232-0.559c0-0.218,0.077-0.409,0.232-0.572c0.155-0.164,0.342-0.245,0.561-0.245h7.055
		c0.127,0,0.191-0.063,0.191-0.191v-0.381c0-0.363,0.127-0.672,0.383-0.927c0.255-0.254,0.565-0.381,0.93-0.381
		c0.364,0,0.674,0.127,0.93,0.381c0.255,0.255,0.383,0.563,0.383,0.927v0.381c0,0.127,0.063,0.191,0.191,0.191h5.305
		c0.656,0,1.217,0.231,1.682,0.695s0.697,1.022,0.697,1.676v0.3c0,0.182,0.091,0.272,0.273,0.272h2.078
		c0.273,0,0.501,0.091,0.684,0.272c0.182,0.182,0.273,0.4,0.273,0.654s-0.091,0.477-0.273,0.667
		c-0.183,0.191-0.41,0.286-0.684,0.286h-2.078c-0.183,0-0.273,0.091-0.273,0.272v0.354c0,0.654-0.232,1.212-0.697,1.676
		s-1.025,0.695-1.682,0.695h-5.223c-0.183,0-0.273,0.091-0.273,0.272v0.736c0,0.182,0.091,0.272,0.273,0.272h8.121
		c0.237,0,0.438,0.082,0.602,0.245s0.246,0.364,0.246,0.6c0,0.236-0.082,0.436-0.246,0.6s-0.365,0.245-0.602,0.245h-8.121
		c-0.183,0-0.273,0.091-0.273,0.272V100.244z M148.398,112.261c-0.347,0-0.647-0.123-0.902-0.368
		c-0.255-0.246-0.383-0.55-0.383-0.913v-5.096c0-0.654,0.232-1.213,0.697-1.676c0.465-0.463,1.025-0.695,1.682-0.695h13.344
		c0.656,0,1.217,0.231,1.682,0.695c0.465,0.463,0.697,1.022,0.697,1.676v5.041c0,0.363-0.128,0.672-0.383,0.927
		c-0.255,0.254-0.565,0.381-0.93,0.381h-0.602c-0.201,0-0.369-0.073-0.506-0.218c-0.137-0.146-0.205-0.318-0.205-0.518
		c0-0.054-0.027-0.082-0.082-0.082h-12.742c-0.055,0-0.082,0.027-0.082,0.082c0,0.218-0.078,0.399-0.232,0.545
		c-0.155,0.145-0.333,0.218-0.533,0.218H148.398z M162.59,105.476c0-0.182-0.091-0.272-0.273-0.272h-12.359
		c-0.183,0-0.273,0.091-0.273,0.272v0.845c0,0.182,0.091,0.272,0.273,0.272h12.359c0.182,0,0.273-0.091,0.273-0.272V105.476z
		 M149.684,109.427c0,0.182,0.091,0.272,0.273,0.272h12.359c0.182,0,0.273-0.091,0.273-0.272v-0.954
		c0-0.182-0.091-0.272-0.273-0.272h-12.359c-0.183,0-0.273,0.091-0.273,0.272V109.427z M157.477,89.998
		c-0.183,0-0.273,0.091-0.273,0.272v0.79c0,0.182,0.091,0.272,0.273,0.272h4.758c0.182,0,0.273-0.091,0.273-0.272v-0.79
		c0-0.182-0.091-0.272-0.273-0.272H157.477z M157.477,93.213c-0.183,0-0.273,0.091-0.273,0.272v0.817
		c0,0.182,0.091,0.272,0.273,0.272h4.758c0.182,0,0.273-0.09,0.273-0.272v-0.817c0-0.181-0.091-0.272-0.273-0.272H157.477z"/>
	<path fill="#90743C" d="M194.746,98.799c0,0.654-0.232,1.212-0.697,1.676s-1.025,0.695-1.682,0.695h-5.277
		c-0.183,0-0.273,0.091-0.273,0.272v1.553c0,0.182,0.091,0.272,0.273,0.272h6.453c0.656,0,1.217,0.232,1.682,0.695
		c0.465,0.463,0.697,1.022,0.697,1.676v5.177c0,0.327-0.119,0.608-0.355,0.845c-0.237,0.236-0.52,0.354-0.848,0.354h-0.137
		c-0.292,0-0.542-0.105-0.752-0.313c-0.21-0.209-0.314-0.459-0.314-0.75c0-0.073-0.037-0.109-0.109-0.109h-6.453
		c-0.091,0-0.137,0.045-0.137,0.136v0.027c0,0.327-0.114,0.604-0.342,0.831c-0.228,0.227-0.501,0.341-0.82,0.341
		c-0.319,0-0.597-0.114-0.834-0.341c-0.237-0.228-0.355-0.504-0.355-0.831V94.603c0-0.109-0.055-0.164-0.164-0.164
		c-0.401,0-0.748-0.145-1.039-0.436c-0.292-0.29-0.438-0.645-0.438-1.063v-1.253c0-0.036-0.023-0.063-0.068-0.082
		c-0.046-0.018-0.078-0.009-0.096,0.027c-0.347,0.364-0.757,0.545-1.23,0.545c-0.055,0-0.101,0-0.137,0
		c-0.547-0.036-0.994-0.272-1.34-0.708c-0.748-0.944-1.495-1.762-2.242-2.452c-0.128-0.127-0.246-0.118-0.355,0.027
		c-1.039,1.763-2.233,3.343-3.582,4.742c-0.037,0.037-0.046,0.078-0.027,0.123c0.018,0.045,0.055,0.068,0.109,0.068h2.434
		c0.182,0,0.273-0.082,0.273-0.246v-1.117c0-0.309,0.104-0.572,0.314-0.79c0.209-0.218,0.469-0.327,0.779-0.327
		c0.31,0,0.574,0.109,0.793,0.327c0.219,0.218,0.328,0.481,0.328,0.79v1.117c0,0.164,0.082,0.246,0.246,0.246h0.355
		c0.656,0,1.217,0.231,1.682,0.695s0.697,1.022,0.697,1.676v4.523c0,0.654-0.232,1.213-0.697,1.676
		c-0.465,0.463-1.025,0.695-1.682,0.695h-3.883c-0.183,0-0.273,0.091-0.273,0.272v4.115c0,0.073,0.027,0.132,0.082,0.177
		c0.055,0.046,0.118,0.06,0.191,0.041c0.219-0.054,1.294-0.309,3.227-0.763c0.073-0.018,0.123-0.059,0.15-0.123
		c0.027-0.063,0.022-0.123-0.014-0.177c-0.183-0.309-0.383-0.645-0.602-1.008c-0.164-0.254-0.205-0.522-0.123-0.804
		c0.082-0.281,0.26-0.477,0.533-0.586c0.182-0.09,0.364-0.136,0.547-0.136c0.127,0,0.246,0.019,0.355,0.055
		c0.328,0.091,0.583,0.272,0.766,0.545c0.984,1.49,1.759,2.907,2.324,4.251c0.055,0.164,0.082,0.323,0.082,0.477
		c0,0.155-0.027,0.313-0.082,0.477c-0.146,0.327-0.383,0.563-0.711,0.708c-0.146,0.072-0.292,0.109-0.438,0.109
		c-0.146,0-0.292-0.037-0.438-0.109c-0.292-0.127-0.492-0.346-0.602-0.654c-0.128-0.29-0.265-0.6-0.41-0.926
		c-0.055-0.164-0.173-0.218-0.355-0.164c-1.641,0.473-3.847,1.09-6.617,1.853c-0.128,0.036-0.246,0.054-0.355,0.054
		c-0.219,0-0.419-0.054-0.602-0.163c-0.31-0.182-0.52-0.436-0.629-0.763c-0.037-0.127-0.055-0.245-0.055-0.354
		c0-0.199,0.055-0.39,0.164-0.572c0.164-0.291,0.41-0.473,0.738-0.545c0.146-0.036,0.282-0.063,0.41-0.082
		c0.127-0.018,0.191-0.091,0.191-0.218V94.685c0-0.018-0.009-0.027-0.027-0.027c-0.019,0-0.037,0-0.055,0
		c-0.183,0.164-0.388,0.231-0.615,0.204c-0.228-0.027-0.415-0.131-0.561-0.313c-0.073-0.073-0.146-0.146-0.219-0.218
		c-0.219-0.218-0.328-0.481-0.328-0.79c0-0.291,0.1-0.536,0.301-0.736c1.604-1.472,2.917-3.179,3.938-5.123
		c0.164-0.327,0.405-0.59,0.725-0.791c0.319-0.2,0.661-0.299,1.025-0.299c0.838,0,1.549,0.263,2.133,0.79
		c1.458,1.326,2.606,2.571,3.445,3.733c0.018,0.018,0.041,0.023,0.068,0.014s0.041-0.032,0.041-0.068
		c0-0.417,0.15-0.776,0.451-1.076s0.661-0.45,1.08-0.45h3.664c0.182,0,0.273-0.091,0.273-0.272v-1.444
		c0-0.345,0.123-0.641,0.369-0.886s0.542-0.368,0.889-0.368c0.346,0,0.643,0.123,0.889,0.368s0.369,0.541,0.369,0.886v1.444
		c0,0.182,0.091,0.272,0.273,0.272h3.117c0.656,0,1.217,0.231,1.682,0.695s0.697,1.022,0.697,1.676v0.899
		c0,0.454-0.16,0.84-0.479,1.158c-0.319,0.318-0.707,0.477-1.162,0.477c-0.128,0-0.191,0.055-0.191,0.164V98.799z M179.434,96.156
		c0-0.181-0.091-0.272-0.273-0.272h-3.664c-0.183,0-0.273,0.091-0.273,0.272v1.254c0,0.182,0.091,0.272,0.273,0.272h3.664
		c0.182,0,0.273-0.091,0.273-0.272V96.156z M175.223,101.061c0,0.182,0.091,0.272,0.273,0.272h3.664
		c0.182,0,0.273-0.091,0.273-0.272v-1.335c0-0.181-0.091-0.272-0.273-0.272h-3.664c-0.183,0-0.273,0.091-0.273,0.272V101.061z
		 M194.145,91.932c0-0.181-0.091-0.272-0.273-0.272h-8.449c-0.183,0-0.273,0.091-0.273,0.272v1.853c0,0.182,0.091,0.272,0.273,0.272
		h8.449c0.182,0,0.273-0.091,0.273-0.272V91.932z M192.094,99.099c0.182,0,0.273-0.091,0.273-0.272v-2.398
		c0-0.181-0.091-0.272-0.273-0.272h-5.004c-0.183,0-0.273,0.091-0.273,0.272v2.398c0,0.182,0.091,0.272,0.273,0.272H192.094z
		 M193.516,105.693c0-0.181-0.091-0.272-0.273-0.272h-6.152c-0.183,0-0.273,0.091-0.273,0.272v2.67c0,0.182,0.091,0.273,0.273,0.273
		h6.152c0.182,0,0.273-0.091,0.273-0.273V105.693z"/>
</g>
<g>
</g>
<g>
</g>
<g>
</g>
<g>
</g>
<g>
</g>
<g>
</g>
<g>
</g>
<g>
</g>
<g>
</g>
<g>
</g>
<g>
</g>
<g>
</g>
<g>
</g>
<g>
</g>
<g>
</g>
</svg>
